<?xml version="1.0" standalone="no"?>
<!DOCTYPE svg PUBLIC "-//W3C//DTD SVG 20010904//EN"
 "http://www.w3.org/TR/2001/REC-SVG-20010904/DTD/svg10.dtd">
<svg version="1.0" xmlns="http://www.w3.org/2000/svg"
 width="959.000000pt" height="959.000000pt" viewBox="0 0 959.000000 959.000000"
 preserveAspectRatio="xMidYMid meet">
<metadata>
Created by potrace 1.14, written by Peter Selinger 2001-2017
</metadata>
<g transform="translate(0.000000,959.000000) scale(0.100000,-0.100000)"
fill="#000000" stroke="none">
<path d="M0 8970 c0 -570 1 -620 17 -620 15 0 15 -1 0 -18 -15 -16 -17 -53
-17 -313 l1 -294 32 40 c18 21 42 51 54 65 l23 25 -19 -55 c-11 -30 -35 -99
-55 -154 l-36 -98 0 -2371 0 -2370 52 6 c172 20 307 39 333 47 28 9 48 34 84
105 19 36 42 65 53 65 10 0 -1 -50 -15 -68 -7 -9 -3 -12 17 -12 15 0 25 -4 22
-9 -4 -5 -3 -17 0 -26 10 -26 107 -16 137 13 19 20 20 22 4 22 -10 0 -16 4
-13 9 3 5 23 0 44 -10 40 -20 106 -28 119 -15 4 4 -3 16 -17 27 l-25 20 30 -5
c17 -3 36 -2 44 3 18 12 41 3 41 -16 0 -8 4 -11 10 -8 12 7 57 -16 119 -60 26
-19 58 -39 71 -45 14 -6 40 -20 59 -30 l33 -19 -33 -4 c-22 -3 -14 -4 21 -5
61 0 118 -10 125 -22 3 -5 -39 -11 -92 -14 -181 -12 -338 -28 -381 -38 -34 -9
-49 -20 -68 -50 -42 -67 -56 -203 -32 -307 15 -64 5 -76 -60 -74 l-47 2 40
-12 c70 -21 84 -37 78 -85 -4 -29 -11 -42 -22 -43 -11 0 -9 -3 6 -9 33 -13 50
-58 51 -133 1 -81 -20 -95 -31 -19 -5 36 -17 41 -112 44 -98 3 -508 -9 -592
-18 l-53 -5 0 -410 0 -409 83 -2 c45 0 89 -1 97 0 8 1 109 4 225 7 116 3 284
10 375 14 91 5 279 9 418 11 l254 2 -11 -21 c-27 -49 -40 -51 -512 -56 -243
-3 -445 -8 -450 -11 -4 -2 -114 -5 -243 -5 l-236 0 0 -459 0 -460 226 4 c124
2 222 1 217 -3 -4 -4 -28 -16 -53 -26 -25 -11 -61 -32 -81 -48 -37 -28 -38
-29 -173 -28 l-136 1 0 -55 0 -55 4795 0 4795 0 0 25 0 25 -235 0 c-220 0
-286 8 -198 25 34 6 70 16 163 46 19 7 38 16 42 22 3 6 21 10 39 10 19 0 42 9
53 19 11 10 31 18 45 18 13 0 40 5 58 12 30 11 33 16 33 51 0 33 -3 38 -17 32
-10 -4 -49 -14 -88 -22 -38 -8 -77 -19 -87 -24 -9 -5 -26 -9 -37 -9 -12 0 -21
-4 -21 -10 0 -5 -5 -10 -10 -10 -6 0 -30 -9 -53 -20 -23 -12 -71 -24 -107 -27
-53 -4 -77 -13 -130 -46 -36 -23 -68 -46 -72 -52 -5 -6 -8 -6 -8 0 0 5 -5 4
-12 -3 -9 -9 -225 -12 -911 -12 -494 0 -896 4 -893 8 3 5 31 14 63 22 32 7 85
23 118 35 33 13 71 26 85 30 14 4 48 17 75 30 28 12 79 31 115 40 84 23 152
46 165 57 5 4 23 8 40 8 17 0 40 7 52 15 12 8 52 24 90 36 37 11 88 30 113 41
86 41 230 94 320 118 36 9 119 35 185 57 66 23 145 47 175 54 30 7 57 16 60
20 3 3 19 9 35 12 17 3 71 18 120 32 50 14 114 31 144 36 29 5 61 13 70 18 17
9 185 26 211 22 8 -2 23 -10 32 -18 10 -9 28 -17 40 -18 40 -3 88 -17 88 -26
0 -5 11 -9 25 -9 l25 0 0 1380 c0 823 -4 1380 -9 1380 -5 0 -20 -21 -32 -47
-13 -26 -42 -76 -66 -110 -24 -35 -43 -65 -43 -68 0 -21 -118 -160 -241 -284
-145 -146 -376 -347 -489 -426 -40 -27 -85 -60 -100 -73 -59 -47 -156 -113
-190 -128 -19 -9 -48 -26 -65 -38 -28 -20 -64 -37 -160 -73 -22 -9 -58 -24
-81 -34 -22 -9 -67 -25 -100 -34 -32 -9 -81 -23 -109 -31 -116 -35 -166 -44
-265 -50 -111 -7 -226 1 -250 17 -12 7 2 25 68 89 45 44 87 80 92 80 6 0 10 7
10 15 0 8 3 15 8 15 7 0 55 46 121 118 17 18 38 46 46 62 16 31 76 67 150 90
22 7 74 29 115 50 41 20 89 40 105 44 17 4 44 13 60 21 17 7 46 18 65 25 19 7
49 19 67 26 17 8 46 17 65 21 18 3 42 12 53 19 11 6 46 19 78 28 32 10 57 22
57 30 0 16 -32 46 -48 46 -7 0 -12 1 -12 3 0 2 67 71 148 153 140 141 242 254
242 269 0 3 9 16 21 28 11 12 30 40 41 62 11 22 24 42 28 45 16 11 111 212
144 305 33 92 66 247 66 305 -1 25 -9 69 -19 98 -18 53 -18 54 3 77 12 13 47
30 81 40 116 31 135 46 100 75 -13 11 -27 10 -75 -3 -33 -10 -62 -17 -64 -17
-2 0 11 35 30 78 19 42 34 85 34 94 0 9 4 19 9 22 5 3 12 21 15 39 4 23 14 36
34 44 15 6 54 23 87 37 68 29 67 30 136 -57 l39 -49 0 2556 0 2556 -4795 0
-4795 0 0 -620z m3758 -220 c-16 -223 -4 -498 31 -738 17 -111 35 -210 40
-220 5 -9 14 -43 21 -75 6 -32 22 -89 35 -125 13 -37 31 -87 40 -112 19 -55
101 -254 121 -293 8 -16 14 -33 14 -37 0 -10 -54 -5 -140 11 -184 36 -492 63
-915 80 -167 7 -296 17 -304 23 -18 14 -10 66 33 201 19 61 37 126 41 145 4
19 15 49 25 66 10 17 21 47 25 65 7 33 77 175 96 194 12 12 12 -11 -1 -55 -17
-59 -40 -217 -40 -275 0 -31 -5 -99 -12 -151 -9 -76 -9 -99 2 -119 17 -33 26
-25 35 32 12 80 102 378 145 478 4 11 18 47 31 80 30 82 57 146 71 170 7 11
24 43 39 70 65 121 86 155 124 199 22 25 49 64 60 85 21 40 72 107 115 151 13
14 46 54 73 90 45 60 196 214 203 208 1 -2 -2 -69 -8 -148z m2201 -445 c67
-58 173 -169 288 -305 21 -24 58 -67 83 -96 83 -95 130 -153 130 -160 0 -4 15
-25 33 -48 37 -46 64 -85 90 -130 10 -17 27 -38 38 -48 10 -9 19 -22 19 -28 0
-7 13 -29 29 -49 38 -48 76 -116 160 -286 110 -225 146 -305 179 -395 51 -142
56 -129 -42 -114 -47 7 -133 24 -193 38 -59 15 -118 28 -130 31 -25 6 -93 72
-93 91 0 7 -10 25 -22 41 -13 15 -27 36 -33 45 -5 9 -31 47 -56 85 -61 90
-109 171 -109 183 0 6 -3 10 -7 10 -5 0 -19 23 -33 51 -13 28 -30 55 -37 61
-7 6 -13 21 -13 33 0 12 -7 28 -15 35 -8 7 -20 30 -25 51 -6 22 -22 56 -35 76
-14 20 -25 40 -25 44 0 5 -13 37 -29 71 -35 76 -121 330 -121 358 0 11 -4 28
-9 38 -14 25 -58 171 -66 218 -4 21 -13 61 -21 88 -20 72 -19 83 8 60 12 -10
38 -32 57 -49z m-3225 -212 c-4 -16 -12 -41 -20 -58 -20 -46 -86 -311 -96
-390 -6 -38 -10 -140 -11 -225 l-2 -155 -45 2 c-25 1 -117 2 -205 3 -103 1
-162 5 -166 12 -8 13 61 146 102 199 16 20 29 42 29 48 0 6 4 11 10 11 5 0 13
12 16 28 4 15 14 36 24 47 9 11 34 48 54 81 21 34 46 71 56 82 10 10 27 37 38
58 11 21 29 48 39 59 10 11 37 45 60 75 22 30 54 68 70 85 15 16 27 32 27 35
-3 11 8 30 17 30 5 0 6 -12 3 -27z m-840 -60 c-4 -16 -14 -37 -23 -48 -9 -11
-23 -38 -30 -60 -7 -22 -29 -78 -48 -125 -39 -96 -43 -105 -68 -175 -9 -27
-28 -80 -41 -116 -13 -36 -27 -99 -30 -140 -4 -41 -11 -80 -17 -86 -6 -9 -39
-13 -98 -13 -121 0 -121 -5 -8 227 43 90 88 174 100 186 12 12 27 36 35 54 7
17 35 60 62 95 26 34 55 74 64 88 8 14 25 36 37 50 12 13 31 39 42 57 25 40
31 42 23 6z m5388 -256 c166 -166 218 -224 218 -243 0 -7 6 -17 14 -21 7 -4
31 -33 52 -63 21 -30 47 -63 56 -72 10 -10 24 -32 33 -50 8 -18 26 -51 40 -73
14 -22 35 -58 46 -80 12 -22 31 -53 44 -70 19 -25 68 -113 103 -182 5 -10 19
-36 31 -58 52 -95 113 -233 140 -313 47 -139 62 -194 57 -199 -6 -7 -103 16
-136 32 -21 10 -217 65 -340 95 -19 5 -57 14 -83 21 -27 7 -62 12 -79 11 -48
-1 -86 22 -81 50 2 13 -7 113 -22 223 -14 110 -32 256 -41 324 -8 68 -19 131
-24 141 -6 10 -10 34 -10 52 0 19 -4 38 -8 44 -5 5 -14 36 -21 69 -7 33 -17
70 -22 83 -5 13 -9 31 -9 40 0 9 -7 30 -15 45 -18 35 -76 220 -82 265 -3 17
-9 32 -14 32 -5 0 -9 9 -9 20 0 11 4 20 10 20 5 0 73 -64 152 -143z m-6022 45
c-12 -26 -35 -74 -51 -107 -43 -90 -100 -251 -116 -330 -8 -38 -17 -86 -21
-105 l-8 -35 -74 -8 c-106 -11 -113 -9 -96 25 8 14 19 43 26 65 11 35 27 66
105 208 23 42 69 115 137 219 28 41 113 133 116 125 2 -5 -6 -30 -18 -57z
m4907 -624 c-3 -8 -6 -5 -6 6 -1 11 2 17 5 13 3 -3 4 -12 1 -19z m107 -164 c4
-15 20 -37 37 -51 38 -32 76 -103 55 -103 -18 0 -49 47 -40 63 4 7 4 9 -1 5
-5 -5 -13 0 -19 11 -6 10 -23 37 -38 59 -31 46 -38 72 -14 53 8 -7 17 -23 20
-37z m-3609 -24 c168 -10 215 -17 330 -50 215 -60 345 -120 345 -157 0 -5 18
-29 40 -53 22 -24 40 -47 40 -52 0 -5 24 -37 53 -71 29 -34 70 -90 90 -124 37
-60 40 -63 77 -63 21 0 45 7 54 15 8 8 18 15 22 15 17 0 120 57 150 84 31 27
32 30 19 56 -8 15 -21 30 -30 34 -26 10 -7 26 74 63 132 60 146 67 159 80 15
14 32 17 31 6 0 -5 -41 -35 -92 -68 -93 -61 -120 -95 -75 -95 13 0 49 16 81
35 32 19 62 35 68 35 5 0 9 5 9 10 0 6 5 10 12 10 6 0 19 6 27 14 9 8 32 23
52 34 l37 20 17 -45 c69 -180 94 -718 50 -1063 -3 -25 -12 -94 -20 -155 -8
-60 -16 -126 -19 -145 -10 -86 -70 -335 -105 -440 -21 -63 -46 -139 -55 -168
-9 -28 -44 -93 -79 -143 -34 -50 -68 -101 -75 -114 -7 -13 -23 -32 -35 -42
-13 -10 -33 -35 -46 -56 -12 -20 -30 -43 -39 -50 -10 -6 -25 -23 -33 -37 -18
-28 -188 -199 -240 -243 -94 -77 -162 -122 -245 -163 -50 -24 -98 -44 -106
-44 -9 0 -53 -15 -100 -34 -250 -101 -593 -159 -928 -156 -140 1 -242 21 -565
109 -16 5 -61 23 -98 40 -38 17 -75 31 -82 31 -16 0 -142 90 -205 148 -26 23
-50 42 -54 42 -4 0 -31 25 -59 56 -55 59 -85 128 -86 197 -1 20 -5 45 -10 55
-8 14 -24 104 -45 247 -2 17 -9 53 -14 80 -19 94 -31 200 -37 320 -3 66 -11
161 -19 210 -49 304 -66 425 -81 550 -22 192 -56 428 -62 437 -2 5 -8 45 -13
91 -15 140 -40 330 -49 374 -9 46 -4 90 10 99 5 3 9 15 9 27 0 12 7 31 15 41
8 11 15 29 15 40 0 38 15 47 86 53 l69 6 -32 -27 c-83 -70 -96 -86 -87 -107 9
-20 11 -20 63 15 29 20 55 36 57 36 3 0 15 9 27 21 25 23 107 62 115 54 6 -6
6 -5 21 -130 12 -97 26 -148 53 -186 16 -22 19 -23 31 -7 7 9 19 57 26 107 7
50 16 91 21 91 4 0 16 -26 25 -57 16 -55 33 -104 68 -198 8 -22 21 -40 28 -40
10 0 13 27 10 130 -2 128 10 254 30 307 6 14 20 29 32 32 43 10 257 19 258 10
1 -5 3 -20 5 -34 2 -14 21 -81 43 -150 21 -69 37 -128 35 -132 -2 -4 -37 -22
-77 -40 -69 -32 -228 -140 -236 -161 -2 -6 -21 -29 -41 -51 -40 -44 -140 -192
-140 -208 0 -5 -13 -37 -29 -71 -63 -135 -111 -361 -82 -390 16 -16 20 -7 41
79 35 149 81 272 112 306 7 7 26 32 42 56 42 61 143 153 245 221 96 65 213
122 228 112 6 -3 18 -21 27 -39 17 -33 83 -102 98 -102 13 0 9 24 -8 66 -28
66 -34 103 -18 119 18 17 159 62 239 75 105 18 286 23 395 12 227 -24 507
-149 653 -294 21 -21 46 -44 56 -50 10 -7 30 -33 45 -58 16 -25 35 -51 44 -57
34 -27 55 31 33 90 -14 35 -97 143 -156 202 -64 63 -161 138 -222 171 -26 13
-54 30 -63 38 -55 46 -244 90 -468 108 -110 9 -150 9 -175 0 -19 -7 -53 -12
-78 -12 -24 0 -75 -7 -112 -16 -73 -18 -97 -12 -82 23 5 10 9 21 10 26 2 4 3
8 5 10 5 7 21 101 21 129 0 22 18 35 54 41 53 7 416 6 570 -3z m1172 -115
c146 -25 192 -35 206 -42 13 -8 -13 -31 -59 -55 l-44 -22 -130 64 c-72 36
-130 68 -130 72 0 11 -4 11 157 -17z m2572 -39 c20 -24 -6 -29 -29 -6 -19 19
-19 20 -1 20 10 0 24 -6 30 -14z m-1719 -93 c18 -16 59 -50 90 -78 30 -27 78
-68 105 -90 27 -22 59 -50 72 -62 13 -13 27 -23 30 -23 3 0 24 -15 47 -33 23
-18 82 -59 133 -92 86 -56 109 -84 84 -100 -5 -3 -17 -27 -27 -53 -9 -26 -28
-72 -42 -102 -14 -30 -29 -73 -33 -95 -9 -41 -26 -119 -36 -167 -6 -32 -14
-34 -51 -14 -39 21 -106 44 -158 56 -63 14 -314 41 -324 35 -4 -3 -16 -2 -25
1 -15 6 -15 29 -9 253 4 135 8 248 10 250 6 7 63 -53 64 -66 0 -6 13 -20 30
-29 16 -10 43 -40 61 -67 34 -53 54 -66 72 -48 8 8 6 19 -6 43 -18 36 -39 70
-47 78 -8 8 -40 67 -40 74 0 12 40 -15 80 -54 22 -22 49 -44 59 -50 29 -15 37
7 14 33 -11 12 -23 29 -27 37 -4 8 -24 44 -46 80 -21 36 -47 81 -56 100 -40
82 -73 157 -79 180 -4 14 -14 36 -22 49 l-16 24 30 -21 c17 -12 45 -34 63 -49z
m1750 36 c10 -18 9 -20 -7 -17 -10 2 -19 11 -21 21 -5 24 15 21 28 -4z m2411
-172 c-1 -12 -15 -9 -19 4 -3 6 1 10 8 8 6 -3 11 -8 11 -12z m38 -69 c29 -69
34 -82 38 -107 2 -14 10 -36 18 -50 25 -49 75 -214 75 -249 0 -11 4 -22 10
-24 5 -1 16 -27 23 -56 12 -44 12 -50 1 -41 -8 6 -14 17 -14 24 0 7 -8 30 -17
51 -9 22 -16 43 -14 48 1 4 -5 13 -12 20 -8 6 -30 49 -48 95 -18 46 -43 99
-56 118 -21 31 -41 125 -43 196 0 31 21 18 39 -25z m-2184 -223 c38 -33 83
-73 99 -88 32 -30 66 -36 66 -11 0 9 -31 48 -70 86 -38 38 -70 74 -70 80 0 13
55 4 219 -38 73 -19 142 -34 153 -34 26 0 79 -60 76 -85 -3 -17 -15 -22 -93
-32 -133 -17 -175 -25 -181 -34 -3 -5 -14 -9 -26 -9 -11 0 -34 -6 -51 -14 -72
-31 -136 -56 -146 -56 -5 0 -13 10 -17 23 -4 12 -9 24 -13 27 -18 15 -72 93
-100 146 -32 61 -32 62 -14 84 24 29 54 40 78 27 10 -5 51 -38 90 -72z m1795
47 c8 -17 25 -42 37 -56 12 -14 33 -44 45 -67 33 -60 42 -75 57 -93 12 -14 11
-16 -5 -10 -10 4 -23 10 -29 14 -5 4 -26 11 -45 15 -19 4 -52 16 -74 27 l-39
20 7 60 c3 34 6 76 6 95 0 42 18 40 40 -5z m-1000 -163 c37 -11 41 -14 21 -17
-33 -5 -131 7 -131 17 0 24 27 24 110 0z m-1940 -50 c58 -22 125 -49 150 -59
73 -30 302 -95 370 -105 14 -2 88 -11 165 -20 184 -22 215 -30 208 -54 -3 -13
1 -20 14 -23 19 -4 73 19 73 31 0 14 100 33 140 26 38 -6 40 -5 40 19 0 13 -4
28 -10 31 -19 12 -10 22 38 42 99 44 305 72 416 59 48 -6 57 -11 62 -32 7 -29
21 -30 48 -5 20 18 25 19 111 5 109 -18 302 -86 422 -149 48 -26 90 -50 93
-53 3 -4 24 -20 47 -35 108 -69 244 -221 345 -382 67 -107 145 -321 160 -435
11 -86 5 -249 -15 -405 -1 -15 5 -21 23 -23 21 -2 28 4 46 45 28 63 41 112 54
201 9 66 9 106 -5 247 -6 69 -36 220 -46 230 -5 5 -9 16 -9 24 0 14 -37 101
-65 153 -8 14 -15 31 -15 36 0 6 -15 33 -34 60 -33 49 -38 88 -16 117 4 6 13
37 20 70 6 33 14 67 17 75 3 8 5 18 5 23 -3 14 55 7 94 -12 21 -10 64 -27 94
-36 30 -10 78 -26 105 -37 28 -11 69 -27 93 -36 32 -11 57 -32 100 -84 62 -75
89 -85 84 -30 -4 37 -2 37 58 16 62 -21 75 -36 90 -99 13 -53 8 -84 -9 -56 -5
7 -19 11 -32 9 -24 -3 -24 -5 -24 -116 0 -61 -2 -112 -4 -112 -3 0 -12 7 -21
15 -25 23 -50 9 -50 -29 -1 -90 -12 -191 -22 -203 -6 -8 -17 -12 -23 -9 -41
15 -47 -73 -20 -304 l14 -121 -64 -102 c-35 -56 -96 -167 -135 -247 -39 -80
-80 -161 -91 -180 -11 -19 -35 -68 -55 -107 -19 -40 -39 -73 -44 -73 -6 0 -10
-6 -10 -14 0 -19 -62 -136 -72 -136 -4 0 -8 -7 -8 -15 0 -8 -24 -61 -54 -117
-29 -57 -68 -131 -86 -166 -17 -34 -36 -64 -40 -67 -5 -3 -16 -28 -25 -55 -9
-28 -20 -50 -24 -50 -4 0 -22 -30 -40 -67 -36 -72 -106 -180 -131 -200 -8 -7
-37 -19 -64 -28 -27 -8 -55 -20 -62 -26 -8 -6 -14 -8 -14 -4 0 4 -6 3 -12 -2
-7 -5 -44 -18 -83 -27 -38 -10 -79 -21 -90 -26 -32 -12 -154 -39 -235 -51
-117 -18 -304 -4 -565 40 -66 11 -151 25 -190 31 -38 6 -108 22 -155 36 -47
13 -110 30 -140 38 -30 8 -68 20 -85 26 -16 7 -37 13 -45 14 -8 2 -33 10 -55
20 -63 27 -78 32 -119 46 -50 16 -181 78 -262 123 -121 68 -334 237 -334 264
0 5 -8 15 -17 24 -23 19 -96 107 -103 122 -3 7 -23 39 -45 72 -196 298 -284
760 -248 1315 7 118 17 229 22 245 5 17 12 53 16 80 3 28 10 61 14 75 11 32
20 66 76 280 25 96 52 191 59 210 8 19 28 73 46 120 32 85 66 150 78 150 4 0
54 -18 112 -41z m3269 1 c0 -10 -3 -8 -9 5 -12 27 -12 43 0 25 5 -8 9 -22 9
-30z m-1061 -37 c23 -9 40 -18 38 -20 -5 -5 -126 37 -126 44 0 5 30 -3 88 -24z
m1113 -45 c5 -10 5 -19 0 -22 -8 -5 -16 10 -38 69 -5 13 26 -25 38 -47z m-886
-33 c39 -14 96 -36 128 -47 l57 -21 0 -58 c0 -33 -4 -59 -9 -59 -5 0 -23 14
-41 30 -18 17 -34 30 -37 30 -6 0 -85 61 -93 71 -5 7 -102 61 -147 83 -13 6
-23 14 -23 18 0 9 80 -14 165 -47z m-7293 -77 c23 -8 28 -18 33 -57 3 -25 10
-66 15 -91 19 -93 62 -440 55 -448 -2 -2 -30 23 -62 55 -103 100 -250 191
-288 177 -13 -5 -15 10 -15 99 0 169 5 190 57 229 68 51 135 63 205 36z m7612
-178 l5 -95 -36 38 c-38 42 -39 59 -8 133 22 54 33 33 39 -76z m-8024 -146
c20 -187 29 -251 38 -275 6 -13 15 -42 21 -64 18 -66 61 -206 84 -275 18 -53
23 -98 28 -245 8 -241 18 -291 125 -612 30 -88 30 -89 -1 -97 -20 -5 -23 -10
-17 -27 10 -25 129 -151 419 -442 l222 -223 24 -75 c25 -75 127 -290 152 -319
7 -8 23 -33 35 -55 13 -22 33 -59 46 -82 13 -23 24 -45 24 -48 0 -16 -184 33
-270 72 -86 39 -174 85 -203 107 -18 13 -45 31 -62 39 -41 21 -158 115 -229
185 -67 65 -166 184 -166 200 0 5 -7 12 -15 16 -8 3 -31 30 -50 60 -19 30 -39
58 -45 61 -6 3 -18 23 -28 43 -26 53 -45 84 -64 107 -19 23 -128 234 -128 248
0 5 -6 23 -14 40 -45 105 -57 137 -71 177 -9 25 -18 52 -20 60 -2 8 -11 38
-18 67 -8 28 -17 56 -21 61 -3 5 -14 59 -23 118 -24 149 -23 588 1 714 34 175
44 216 82 325 31 86 119 243 131 231 1 -1 7 -43 13 -92z m4440 -44 c141 -16
302 -64 313 -93 2 -7 -2 -73 -10 -147 -9 -91 -13 -206 -10 -350 5 -243 18
-380 47 -492 11 -43 20 -98 20 -123 0 -24 5 -64 10 -87 45 -183 63 -248 79
-283 11 -22 22 -51 26 -65 13 -45 58 -140 66 -140 5 0 9 -9 9 -19 0 -16 48
-101 77 -136 5 -5 16 -26 26 -47 25 -52 135 -175 242 -269 38 -33 175 -127
229 -157 22 -12 46 -29 52 -37 6 -8 13 -13 16 -10 2 2 67 -22 143 -55 76 -33
168 -70 204 -81 36 -12 80 -26 96 -32 17 -7 32 -12 35 -13 12 -1 98 -27 135
-39 34 -11 291 -70 350 -80 115 -20 373 -45 465 -45 161 0 264 19 563 104 83
23 89 22 74 -11 -6 -16 -39 -68 -72 -116 -33 -49 -64 -96 -70 -105 -16 -27
-58 -86 -66 -92 -3 -3 -35 -41 -69 -85 -57 -73 -230 -250 -326 -334 -22 -18
-69 -60 -105 -92 -36 -33 -69 -59 -73 -59 -9 0 -51 -34 -121 -99 -28 -25 -72
-62 -99 -81 -26 -19 -62 -47 -81 -62 -18 -16 -37 -28 -43 -28 -6 0 -24 -12
-39 -26 -15 -14 -44 -34 -63 -44 -19 -10 -44 -27 -54 -39 -11 -12 -28 -21 -38
-21 -39 0 -204 -69 -375 -158 -68 -34 -164 -78 -215 -98 -51 -19 -100 -38
-108 -43 -8 -4 -69 -24 -135 -45 -66 -20 -149 -48 -185 -61 -36 -13 -87 -30
-115 -36 -27 -7 -60 -19 -72 -27 -13 -8 -23 -12 -23 -9 0 3 -21 0 -47 -8 -169
-52 -409 -92 -603 -100 -142 -7 -357 6 -429 25 -20 5 -70 14 -111 21 -107 16
-193 39 -210 54 -8 7 -26 15 -40 17 -39 8 -203 57 -225 68 -11 5 -45 19 -75
31 -30 12 -68 27 -85 34 -16 8 -68 29 -115 48 -150 61 -215 90 -231 104 -8 7
-19 13 -23 13 -15 0 -102 43 -144 71 -24 16 -47 29 -53 29 -5 0 -9 5 -9 10 0
6 -6 10 -14 10 -17 0 -43 14 -134 73 -40 26 -77 47 -84 47 -6 0 -25 11 -43 24
-17 13 -81 54 -141 91 -60 37 -116 73 -124 81 -41 39 -96 84 -102 84 -4 0 -39
27 -77 60 -39 33 -72 60 -74 60 -10 0 -119 103 -262 247 -214 216 -346 380
-470 583 -27 45 -54 87 -60 94 -26 30 -117 204 -131 249 -4 12 -19 49 -34 82
-15 33 -33 85 -41 115 -7 30 -17 58 -21 61 -5 3 -14 27 -22 55 -7 27 -21 76
-31 109 -16 57 -22 81 -60 253 -9 41 -14 76 -12 79 5 5 106 -73 138 -107 15
-15 123 -70 284 -146 28 -13 70 -28 95 -34 59 -15 191 -51 210 -58 70 -25 206
-43 360 -48 202 -6 415 15 585 59 55 14 137 34 183 43 45 10 82 21 82 25 0 4
15 11 33 14 17 4 37 11 42 15 6 5 37 16 70 25 33 10 71 23 85 30 14 7 36 18
50 24 14 7 43 22 65 34 116 66 153 89 171 109 12 13 55 55 98 93 43 39 94 88
114 110 20 21 49 52 64 67 14 15 28 32 30 36 1 5 22 31 45 58 96 112 193 243
193 262 0 5 6 14 13 20 7 6 28 46 46 89 48 111 69 160 101 228 71 154 88 196
115 280 15 50 32 99 36 110 16 43 38 123 49 180 6 33 19 66 28 73 19 15 124
16 242 2z m-4209 -76 c15 -7 40 -25 57 -39 33 -28 33 -30 -3 -110 -38 -82 -66
-160 -76 -205 -6 -27 -14 -50 -19 -50 -15 0 -28 102 -34 268 l-6 162 27 -6
c16 -4 40 -13 54 -20z m8606 -897 c-7 -52 -52 -214 -87 -319 -29 -84 -37 -97
-59 -103 -14 -3 -46 -15 -71 -27 -25 -12 -61 -29 -80 -37 -19 -9 -42 -21 -50
-27 -8 -7 -25 -15 -36 -18 -21 -6 -21 -5 -10 26 7 18 27 62 46 98 19 36 47 92
63 124 25 50 94 170 148 254 17 28 132 88 137 72 2 -6 2 -26 -1 -43z m-8958
-743 c2 -2 -12 -4 -33 -4 -22 0 -35 4 -31 10 5 9 52 4 64 -6z m436 -684 c-3
-5 -11 -10 -16 -10 -6 0 -7 5 -4 10 3 6 11 10 16 10 6 0 7 -4 4 -10z m240
-200 c3 -5 1 -10 -4 -10 -6 0 -11 5 -11 10 0 6 2 10 4 10 3 0 8 -4 11 -10z
m932 -1062 c21 -27 70 -613 53 -631 -4 -5 -23 -7 -41 -5 -26 2 -34 8 -36 23 0
11 -6 88 -12 170 -6 83 -18 212 -27 288 -12 108 -13 141 -4 153 15 17 54 18
67 2z m6093 -149 c74 -20 145 -41 157 -47 11 -6 38 -42 59 -79 21 -38 46 -83
56 -102 32 -56 60 -140 54 -158 -4 -12 -28 -24 -73 -36 -38 -10 -84 -22 -103
-28 -19 -5 -60 -16 -90 -23 -30 -8 -79 -23 -109 -35 -30 -11 -56 -19 -59 -17
-5 6 -173 -53 -198 -69 -12 -8 -49 -21 -82 -29 -33 -9 -84 -27 -114 -41 -29
-14 -60 -25 -70 -25 -9 0 -18 -3 -20 -7 -3 -8 -85 -49 -158 -80 -19 -8 -46
-21 -60 -29 -14 -7 -41 -21 -60 -30 -19 -9 -37 -19 -40 -23 -3 -3 -43 -26 -90
-50 -47 -25 -98 -52 -115 -60 -16 -9 -35 -22 -43 -29 -7 -7 -39 -24 -69 -39
-30 -15 -58 -33 -60 -40 -3 -7 -10 -13 -16 -13 -5 0 -28 -14 -51 -30 -23 -17
-75 -53 -117 -79 -41 -27 -86 -61 -100 -75 -13 -14 -29 -26 -36 -26 -12 0 -88
-59 -134 -104 -15 -14 -32 -26 -38 -26 -6 0 -11 -4 -11 -8 0 -5 -21 -24 -47
-43 -27 -18 -55 -41 -63 -50 -8 -9 -62 -51 -120 -94 -58 -43 -120 -91 -138
-107 l-33 -28 -303 0 c-166 0 -305 3 -309 6 -5 5 39 70 63 94 3 3 18 25 35 50
16 25 36 52 45 61 8 9 32 38 52 65 217 282 256 329 473 553 192 199 198 205
305 300 52 47 118 106 145 132 28 25 68 62 90 80 22 19 42 37 45 40 13 15 94
52 184 84 320 114 706 169 1189 170 185 0 237 3 237 13 0 19 -34 28 -165 41
-66 7 -151 17 -190 22 -38 6 -101 15 -140 20 -38 6 -71 14 -73 19 -2 6 -13 10
-24 10 -41 0 -9 11 68 25 44 7 134 12 204 11 106 -2 145 -7 260 -37z m-5281
-64 c21 -21 24 -32 23 -102 0 -43 -1 -83 -1 -90 -1 -13 -62 -53 -82 -53 -11 0
-14 26 -16 123 -1 67 0 130 3 140 7 23 39 15 73 -18z m376 -203 c28 -16 68
-39 90 -52 60 -35 89 -50 97 -50 4 0 36 -17 70 -38 35 -20 90 -48 123 -61 84
-34 105 -49 105 -77 0 -17 -8 -28 -27 -35 -47 -19 -67 -28 -108 -54 -22 -13
-50 -29 -62 -34 -13 -6 -23 -15 -23 -21 0 -5 -6 -10 -13 -10 -7 0 -23 -9 -34
-19 -12 -11 -36 -27 -54 -36 -99 -46 -309 -213 -309 -245 0 -6 -7 -10 -15 -10
-9 0 -31 -15 -49 -32 -31 -31 -46 -59 -76 -138 -8 -19 -26 -55 -41 -80 -15
-25 -73 -139 -129 -255 -56 -116 -105 -217 -109 -225 -7 -13 -54 -15 -310 -18
-165 -1 -301 0 -301 2 0 28 70 283 131 476 27 86 49 161 49 168 0 16 76 243
110 327 16 39 41 102 56 140 14 39 34 78 42 88 9 10 59 38 111 63 53 25 130
63 171 84 41 21 86 41 100 45 13 4 58 24 100 43 105 49 190 79 225 81 17 0 53
-12 80 -27z m5859 -258 c39 -20 89 -49 111 -64 22 -14 47 -30 55 -34 8 -3 39
-21 67 -39 29 -18 103 -62 165 -98 62 -36 141 -83 175 -104 59 -36 102 -84
123 -140 8 -22 7 -25 -14 -25 -36 0 -108 28 -129 51 -18 19 -27 20 -96 14 -42
-3 -116 -13 -166 -21 -49 -8 -121 -19 -160 -25 -111 -17 -150 -25 -400 -84
-60 -14 -141 -33 -180 -41 -145 -33 -463 -129 -700 -212 -87 -30 -352 -138
-395 -161 -129 -68 -405 -201 -417 -201 -5 0 -37 -11 -71 -25 l-62 -25 -488 2
-487 3 80 63 c44 35 96 73 115 83 19 11 53 33 75 49 22 17 108 66 190 111 83
44 166 90 185 100 19 11 60 32 90 45 30 14 102 48 160 76 226 109 334 156 440
191 97 33 454 164 560 207 329 132 674 249 820 278 30 6 100 22 155 35 55 14
106 25 114 26 7 0 46 -15 85 -35z m-6699 -13 c6 -10 -5 -39 -79 -215 -25 -59
-46 -113 -46 -119 0 -5 -25 -41 -55 -78 -173 -214 -396 -576 -450 -731 l-28
-78 -367 0 c-326 0 -369 2 -374 16 -12 31 -6 298 7 315 7 9 31 38 54 65 23 27
60 72 84 99 105 125 178 204 369 398 113 115 232 231 265 257 l60 48 140 11
c77 6 176 13 220 14 44 2 106 4 137 5 31 1 59 -2 63 -7z m3844 -85 c-2 -3 -87
-89 -189 -193 -217 -219 -329 -338 -353 -372 -18 -27 -59 -37 -437 -111 -113
-23 -268 -57 -345 -76 -144 -37 -286 -67 -460 -99 -55 -10 -129 -24 -165 -32
-36 -8 -128 -25 -205 -38 -77 -14 -171 -31 -210 -39 -78 -16 -228 -38 -381
-57 -112 -13 -145 -7 -219 39 -22 14 -65 38 -96 53 -31 16 -75 44 -99 64 -24
20 -56 43 -72 51 l-30 15 44 47 c94 100 268 261 326 301 32 22 35 23 70 8 20
-9 55 -21 77 -28 22 -7 58 -18 80 -26 22 -7 72 -19 110 -27 90 -18 290 -7 530
29 94 14 199 30 235 35 36 5 110 18 165 29 94 18 182 32 285 46 65 10 270 60
380 95 230 71 517 163 540 172 66 26 319 107 345 111 46 6 79 7 74 3z m-2581
-299 c-35 -40 -72 -86 -83 -102 l-21 -28 -51 17 c-81 27 -79 38 22 125 71 62
66 58 135 105 l55 38 3 -41 c3 -37 -2 -47 -60 -114z m206 32 c22 -6 51 -18 64
-27 14 -9 34 -18 46 -19 12 -2 39 -10 61 -17 22 -8 67 -22 100 -31 33 -10 70
-22 83 -26 13 -5 34 -9 47 -9 31 0 33 -18 3 -24 -152 -29 -240 -42 -365 -51
-52 -4 -83 -2 -88 4 -9 15 -19 176 -12 195 7 19 10 19 61 5z m-134 -118 c0
-84 -8 -91 -83 -70 -36 10 -38 12 -23 27 8 9 30 34 47 55 43 52 59 49 59 -12z
m-2801 -688 l1 -53 -170 0 c-139 0 -170 3 -170 14 0 8 12 19 28 25 15 6 34 15
42 20 17 10 81 42 155 79 27 14 61 28 75 32 23 6 26 3 32 -29 4 -20 7 -60 7
-88z m1106 35 c-3 -24 -10 -55 -16 -70 -10 -24 -17 -28 -50 -28 -21 0 -40 4
-43 9 -8 12 88 130 106 131 4 0 6 -19 3 -42z"/>
<path d="M2490 6366 c-73 -13 -90 -21 -90 -42 0 -15 16 -19 63 -15 36 3 141
-65 188 -122 20 -23 51 -71 70 -107 32 -62 34 -69 34 -175 l0 -110 -43 -72
c-50 -82 -117 -142 -199 -181 -51 -23 -70 -26 -153 -26 -129 1 -218 29 -287
89 -65 57 -82 101 -84 212 -1 144 29 243 105 342 26 33 51 63 56 66 6 3 10 10
10 16 0 24 -34 2 -113 -76 -113 -110 -198 -254 -228 -385 -4 -19 -12 -53 -18
-75 -17 -65 -14 -334 5 -396 46 -156 152 -311 272 -399 137 -101 324 -170 461
-170 59 0 218 34 276 59 11 5 40 17 65 26 93 34 211 131 252 206 9 17 25 41
35 53 20 22 82 116 102 155 32 60 51 160 58 302 7 171 2 197 -64 354 -75 177
-176 288 -343 377 -97 52 -186 83 -280 98 -75 11 -66 12 -150 -4z m730 -455
c5 -11 10 -33 10 -49 0 -38 -6 -44 -414 -369 -182 -146 -252 -202 -281 -227
-16 -14 -37 -26 -45 -26 -14 0 -60 46 -60 61 0 10 262 239 404 353 26 21 55
46 64 56 22 21 217 179 251 202 34 23 58 23 71 -1z"/>
<path d="M1500 4830 c0 -21 62 -86 125 -132 81 -59 291 -150 390 -169 28 -5
88 -17 134 -25 103 -20 284 -15 416 11 189 37 386 111 393 148 5 26 -29 22
-107 -13 -137 -60 -350 -100 -534 -100 -106 0 -320 32 -402 60 -115 39 -247
114 -337 191 -61 53 -78 59 -78 29z"/>
<path d="M6970 5777 c-36 -8 -56 -18 -58 -28 -2 -13 8 -17 55 -21 70 -6 164
-58 219 -122 45 -52 53 -72 65 -168 26 -209 -74 -418 -239 -499 -42 -21 -61
-24 -182 -24 -132 0 -136 1 -189 30 -29 17 -64 36 -77 43 -30 17 -80 81 -101
129 -9 22 -18 78 -21 134 -4 88 -2 102 20 150 14 30 51 80 82 113 51 53 62 76
35 76 -36 0 -207 -203 -271 -320 -57 -106 -72 -188 -65 -357 8 -168 23 -238
80 -352 44 -87 94 -147 202 -238 136 -115 346 -179 509 -154 141 21 354 105
480 190 120 81 204 217 257 417 42 162 50 297 20 372 -12 29 -25 70 -30 90
-45 182 -193 367 -370 464 -125 68 -307 100 -421 75z m771 -578 c17 -33 29
-140 18 -161 -5 -10 -27 -27 -48 -38 -22 -10 -45 -25 -52 -32 -8 -8 -39 -29
-69 -48 -50 -31 -124 -79 -325 -208 -102 -66 -239 -154 -281 -179 -19 -13 -43
-23 -53 -23 -30 0 -116 107 -106 132 3 7 24 26 48 40 65 42 73 48 190 126 60
40 122 79 140 88 17 9 60 37 96 63 36 25 75 51 86 58 11 7 88 55 170 107 83
53 155 96 162 96 7 0 17 -9 24 -21z"/>
<path d="M6290 4265 c0 -6 55 -59 106 -104 42 -37 179 -123 259 -164 91 -46
202 -88 315 -117 25 -7 56 -16 70 -21 14 -4 79 -15 145 -25 142 -20 255 -12
450 31 119 26 171 47 160 65 -10 16 -51 12 -205 -20 -181 -37 -320 -40 -461
-10 -52 12 -114 25 -139 30 -131 26 -379 137 -514 231 -133 92 -160 109 -173
109 -7 0 -13 -2 -13 -5z"/>
<path d="M4234 3912 c-25 -16 -59 -103 -87 -222 -30 -125 -34 -156 -23 -179
13 -30 159 -115 221 -129 88 -19 162 -24 205 -12 70 19 146 59 189 101 35 33
40 43 35 66 -4 15 -12 33 -18 39 -6 6 -17 20 -23 30 -58 88 -125 180 -161 221
-41 49 -45 51 -105 57 -107 10 -152 18 -161 27 -12 11 -57 12 -72 1z"/>
<path d="M4033 2640 c-59 -9 -158 -46 -188 -71 -28 -23 -157 -152 -174 -174
-13 -17 -25 -76 -52 -255 -6 -41 -8 -104 -5 -140 7 -76 42 -190 59 -191 7 -1
26 0 43 1 18 1 58 -12 94 -31 64 -33 345 -118 390 -119 14 0 57 -10 95 -21
102 -29 183 -38 340 -39 147 0 380 17 405 29 8 5 33 37 55 72 37 58 40 70 43
145 6 128 -38 287 -99 359 -69 82 -128 145 -164 176 -22 19 -47 41 -57 49 -20
18 -227 122 -283 143 -191 70 -344 90 -502 67z"/>
<path d="M853 2853 c-19 -7 -16 -20 7 -26 15 -4 20 0 20 14 0 19 -5 21 -27 12z"/>
<path d="M720 2795 c0 -17 21 -20 36 -6 5 5 18 11 29 14 11 3 1 5 -22 6 -32 1
-43 -3 -43 -14z"/>
<path d="M418 2793 c7 -3 16 -2 19 1 4 3 -2 6 -13 5 -11 0 -14 -3 -6 -6z"/>
<path d="M835 2790 c-13 -5 -14 -9 -5 -9 8 0 24 4 35 9 13 5 14 9 5 9 -8 0
-24 -4 -35 -9z"/>
<path d="M136 2757 c4 -12 -2 -18 -21 -23 -20 -5 -23 -9 -13 -15 7 -5 23 -9
36 -9 17 0 22 -6 22 -25 0 -14 5 -25 10 -25 6 0 10 -6 10 -12 1 -7 14 -24 30
-38 22 -18 30 -33 30 -57 0 -31 -2 -33 -35 -33 -31 0 -35 3 -40 34 -4 19 -4
44 0 55 3 12 2 21 -4 21 -5 0 -12 -19 -14 -42 l-4 -43 -1 43 c-2 38 -5 42 -27
42 -14 0 -25 -6 -25 -12 0 -10 -2 -10 -8 -1 -6 9 -14 3 -27 -20 l-20 -32 -3
31 c-4 42 14 88 33 80 10 -4 15 1 15 14 0 15 -7 20 -25 20 -14 0 -25 5 -25 10
0 6 -7 10 -15 10 -13 0 -15 -21 -15 -130 0 -109 2 -130 15 -130 11 0 15 -11
15 -41 0 -22 -4 -38 -9 -34 -5 3 -12 1 -15 -4 -4 -5 1 -8 10 -7 8 1 25 20 38
42 17 32 28 40 55 42 37 4 51 -9 51 -45 0 -13 3 -22 8 -21 14 3 63 -22 68 -35
7 -18 104 -29 184 -20 48 5 60 9 60 24 0 9 -6 20 -12 22 -10 4 -10 6 0 6 7 1
12 15 12 36 0 19 5 35 10 35 6 0 10 18 10 40 0 22 -4 40 -10 40 -5 0 -10 18
-10 40 l0 40 -55 0 -55 0 0 -40 c0 -22 -4 -40 -10 -40 -5 0 -10 18 -10 40 0
38 -1 40 -32 40 -36 0 -78 35 -78 65 0 15 9 16 68 13 67 -4 68 -4 67 21 0 18
-7 27 -25 32 -38 11 -80 10 -80 -1 0 -5 10 -10 23 -10 12 0 27 -8 33 -18 10
-16 6 -17 -52 -12 -60 5 -101 20 -56 20 12 0 22 5 22 10 0 6 -8 10 -17 10 -10
0 -35 3 -56 6 -32 6 -36 4 -31 -9z"/>
<path d="M725 2740 c3 -5 12 -7 20 -3 21 7 19 13 -6 13 -11 0 -18 -4 -14 -10z"/>
<path d="M671 2583 c0 -6 -8 -19 -17 -28 -21 -20 -13 -29 10 -12 11 8 16 21
13 33 -2 10 -5 14 -6 7z"/>
<path d="M645 2480 c-3 -5 -1 -10 4 -10 6 0 11 5 11 10 0 6 -2 10 -4 10 -3 0
-8 -4 -11 -10z"/>
<path d="M721 2184 c0 -11 3 -14 6 -6 3 7 2 16 -1 19 -3 4 -6 -2 -5 -13z"/>
<path d="M338 2133 c12 -2 32 -2 45 0 12 2 2 4 -23 4 -25 0 -35 -2 -22 -4z"/>
</g>
</svg>
